<svg width="84" height="68" viewBox="0 0 84 68" fill="none" xmlns="http://www.w3.org/2000/svg">
<path d="M82.1417 0.795836C78.7458 2.4 72.9667 5.40834 70.0625 5.98334C69.95 6.0125 69.8583 6.05 69.75 6.07917C66.3625 2.7375 61.7208 0.666669 56.5833 0.666669C46.2292 0.666669 37.8333 9.0625 37.8333 19.4167C37.8333 19.9625 37.7875 20.9667 37.8333 21.5C24.425 21.5 14.6333 14.5042 7.30416 5.5125C6.32499 4.30417 5.28332 4.93334 5.06665 5.79167C4.57915 7.73334 4.41249 10.9792 4.41249 13.2958C4.41249 19.1333 8.97499 24.8667 16.0792 28.4208C14.7708 28.7583 13.3292 29 11.8292 29C10.0625 29 8.02916 28.5375 6.24999 27.6042C5.59166 27.2583 4.17082 27.3542 4.59166 29.0375C6.27916 35.7833 13.9792 40.5208 20.8583 41.9C19.2958 42.8208 15.9625 42.6333 14.4292 42.6333C13.8625 42.6333 11.8917 42.5 10.6167 42.3417C9.45415 42.2 7.66666 42.5 9.16249 44.7667C12.375 49.6292 19.6417 52.6833 25.8958 52.8C20.1375 57.3167 10.7208 58.9667 1.69999 58.9667C-0.125011 58.925 -0.0333441 61.0042 1.43749 61.775C8.09166 65.2667 18.9917 67.3333 26.7792 67.3333C57.7375 67.3333 75.3333 43.7375 75.3333 21.4958C75.3333 21.1375 75.325 20.3875 75.3125 19.6333C75.3125 19.5583 75.3333 19.4875 75.3333 19.4125C75.3333 19.3 75.3 19.1917 75.3 19.0792C75.2875 18.5125 75.275 17.9833 75.2625 17.7083C77.7167 15.9375 81.475 12.8625 83.375 10.5083C84.0208 9.70833 83.5 8.7375 82.6208 9.04167C80.3583 9.82917 76.4458 11.3542 73.9958 11.6458C78.9 8.4 81.325 5.575 83.4083 2.4375C84.1208 1.36667 83.2292 0.27917 82.1417 0.795836Z" fill="white"/>
</svg>
