<svg width="88" height="74" viewBox="0 0 88 74" fill="none" xmlns="http://www.w3.org/2000/svg">
<path d="M44 0.333328C30.0467 0.333328 11.9362 3.82942 11.9362 3.82942L11.8906 3.88151C5.53555 4.89788 0.666672 10.3587 0.666672 17V37V37.0065V57V57.0065C0.672873 60.1783 1.80957 63.244 3.87266 65.6531C5.93576 68.0622 8.7901 69.657 11.9232 70.151L11.9362 70.1706C11.9362 70.1706 30.0467 73.6732 44 73.6732C57.9533 73.6732 76.0638 70.1706 76.0638 70.1706L76.0703 70.1641C79.2068 69.6711 82.0644 68.075 84.1291 65.6631C86.1938 63.2511 87.33 60.1815 87.3333 57.0065V57V37.0065V37V17C87.3287 13.8271 86.1927 10.7598 84.1295 8.34935C82.0662 5.93887 79.211 4.34317 76.0768 3.84895L76.0638 3.82942C76.0638 3.82942 57.9533 0.333328 44 0.333328ZM34 21.6615L60.6667 37L34 52.3385V21.6615Z" fill="white"/>
</svg>
